<svg width="17" height="16" viewBox="0 0 17 16" fill="none" xmlns="http://www.w3.org/2000/svg">
<path fill-rule="evenodd" clip-rule="evenodd" d="M8.38657 -0.000244141C6.28029 -0.000244141 6.01596 0.00926189 5.1887 0.0481199C4.36306 0.0871447 3.79949 0.222064 3.30636 0.420023C2.79627 0.624486 2.36358 0.897993 1.9325 1.34311C1.50109 1.78806 1.23611 2.23467 1.03738 2.76101C0.845103 3.27016 0.714228 3.85203 0.677066 4.70391C0.640066 5.55778 0.630371 5.83079 0.630371 8.00484C0.630371 10.1789 0.639742 10.4509 0.677228 11.3048C0.715197 12.157 0.845911 12.7387 1.03754 13.2477C1.23579 13.7742 1.50077 14.2208 1.93201 14.6657C2.36293 15.111 2.79563 15.3852 3.30539 15.5896C3.79884 15.7876 4.36257 15.9225 5.18805 15.9616C6.01531 16.0004 6.27949 16.0099 8.3856 16.0099C10.492 16.0099 10.7556 16.0004 11.5828 15.9616C12.4085 15.9225 12.9727 15.7876 13.4661 15.5896C13.9761 15.3852 14.4081 15.111 14.839 14.6657C15.2704 14.2208 15.5354 13.7742 15.7342 13.2478C15.9248 12.7387 16.0557 12.1568 16.0945 11.3049C16.1316 10.4511 16.1413 10.1789 16.1413 8.00484C16.1413 5.83079 16.1316 5.55795 16.0945 4.70407C16.0557 3.85187 15.9248 3.27016 15.7342 2.76117C15.5354 2.23467 15.2704 1.78806 14.839 1.34311C14.4076 0.897826 13.9762 0.624319 13.4657 0.420023C12.9712 0.222064 12.4073 0.0871447 11.5817 0.0481199C10.7544 0.00926189 10.4911 -0.000244141 8.38415 -0.000244141H8.38657ZM7.691 1.4417C7.89749 1.44137 8.1279 1.4417 8.38674 1.4417C10.4575 1.4417 10.7029 1.44937 11.5206 1.48773C12.2768 1.52342 12.6872 1.65383 12.9606 1.7634C13.3225 1.90849 13.5805 2.08194 13.8518 2.36212C14.1233 2.64229 14.2913 2.90913 14.4322 3.2827C14.5384 3.56455 14.6649 3.98815 14.6993 4.76864C14.7364 5.61251 14.7445 5.86601 14.7445 8.00236C14.7445 10.1387 14.7364 10.3922 14.6993 11.2361C14.6647 12.0166 14.5384 12.4402 14.4322 12.722C14.2916 13.0956 14.1233 13.3616 13.8518 13.6416C13.5804 13.9218 13.3227 14.0952 12.9606 14.2403C12.6875 14.3504 12.2768 14.4805 11.5206 14.5162C10.7031 14.5545 10.4575 14.5629 8.38674 14.5629C6.31585 14.5629 6.07041 14.5545 5.25285 14.5162C4.49668 14.4801 4.08629 14.3497 3.81274 14.2402C3.45081 14.0951 3.1923 13.9216 2.92085 13.6414C2.64941 13.3613 2.48137 13.0951 2.34048 12.7214C2.23432 12.4395 2.10781 12.0159 2.0734 11.2354C2.03623 10.3915 2.0288 10.138 2.0288 8.00036C2.0288 5.86267 2.03623 5.61051 2.0734 4.76664C2.10797 3.98615 2.23432 3.56254 2.34048 3.28036C2.48105 2.90679 2.64941 2.63996 2.92085 2.35978C3.1923 2.0796 3.45081 1.90616 3.81274 1.76073C4.08612 1.65066 4.49668 1.52058 5.25285 1.48473C5.9683 1.45137 6.24556 1.44137 7.691 1.4397V1.4417ZM12.5267 2.77157C12.0129 2.77157 11.596 3.20135 11.596 3.73185C11.596 4.26219 12.0129 4.69246 12.5267 4.69246C13.0405 4.69246 13.4574 4.26219 13.4574 3.73185C13.4574 3.20151 13.0405 2.77124 12.5267 2.77124V2.77157ZM8.38669 3.8938C6.18719 3.8938 4.40389 5.73447 4.40389 8.00474C4.40389 10.275 6.18719 12.1148 8.38669 12.1148C10.5862 12.1148 12.3688 10.275 12.3688 8.00474C12.3688 5.73447 10.586 3.8938 8.38653 3.8938H8.38669ZM8.38656 5.33667C9.81423 5.33667 10.9717 6.53126 10.9717 8.00503C10.9717 9.47863 9.81423 10.6734 8.38656 10.6734C6.95873 10.6734 5.80137 9.47863 5.80137 8.00503C5.80137 6.53126 6.95873 5.33667 8.38656 5.33667Z" fill="#E84B23"/>
</svg>
