<svg width="17" height="16" viewBox="0 0 17 16" fill="none" xmlns="http://www.w3.org/2000/svg">
<path fill-rule="evenodd" clip-rule="evenodd" d="M8.38657 -0.000244141C6.28029 -0.000244141 6.01596 0.00926189 5.1887 0.0481199C4.36306 0.0871447 3.79949 0.222064 3.30636 0.420023C2.79627 0.624486 2.36358 0.897993 1.9325 1.34311C1.50109 1.78806 1.23611 2.23467 1.03738 2.76101C0.845103 3.27016 0.714228 3.85203 0.677066 4.70391C0.640066 5.55778 0.630371 5.83079 0.630371 8.00484C0.630371 10.1789 0.639742 10.4509 0.677228 11.3048C0.715197 12.157 0.845911 12.7387 1.03754 13.2477C1.23579 13.7742 1.50077 14.2208 1.93201 14.6657C2.36293 15.111 2.79563 15.3852 3.30539 15.5896C3.79884 15.7876 4.36257 15.9225 5.18805 15.9616C6.01531 16.0004 6.27949 16.0099 8.3856 16.0099C10.492 16.0099 10.7556 16.0004 11.5828 15.9616C12.4085 15.9225 12.9727 15.7876 13.4661 15.5896C13.9761 15.3852 14.4081 15.111 14.839 14.6657C15.2704 14.2208 15.5354 13.7742 15.7342 13.2478C15.9248 12.7387 16.0557 12.1568 16.0945 11.3049C16.1316 10.4511 16.1413 10.1789 16.1413 8.00484C16.1413 5.83079 16.1316 5.55795 16.0945 4.70407C16.0557 3.85187 15.9248 3.27016 15.7342 2.76117C15.5354 2.23467 15.2704 1.78806 14.839 1.34311C14.4076 0.897826 13.9762 0.624319 13.4657 0.420023C12.9712 0.222064 12.4073 0.0871447 11.5817 0.0481199C10.7544 0.00926189 10.4911 -0.000244141 8.38415 -0.000244141H8.38657ZM7.69089 1.4417C7.89738 1.44137 8.12779 1.4417 8.38663 1.4417C10.4574 1.4417 10.7028 1.44937 11.5205 1.48773C12.2767 1.52342 12.6871 1.65383 12.9605 1.7634C13.3224 1.90849 13.5804 2.08194 13.8517 2.36212C14.1232 2.64229 14.2912 2.90913 14.4321 3.2827C14.5382 3.56455 14.6648 3.98815 14.6992 4.76864C14.7363 5.61251 14.7444 5.86601 14.7444 8.00236C14.7444 10.1387 14.7363 10.3922 14.6992 11.2361C14.6646 12.0166 14.5382 12.4402 14.4321 12.722C14.2915 13.0956 14.1232 13.3616 13.8517 13.6416C13.5803 13.9218 13.3226 14.0952 12.9605 14.2403C12.6874 14.3504 12.2767 14.4805 11.5205 14.5162C10.703 14.5545 10.4574 14.5629 8.38663 14.5629C6.31573 14.5629 6.0703 14.5545 5.25274 14.5162C4.49657 14.4801 4.08617 14.3497 3.81263 14.2402C3.4507 14.0951 3.19219 13.9216 2.92074 13.6414C2.6493 13.3613 2.48126 13.0951 2.34037 12.7214C2.23421 12.4395 2.1077 12.0159 2.07328 11.2354C2.03612 10.3915 2.02869 10.138 2.02869 8.00036C2.02869 5.86267 2.03612 5.61051 2.07328 4.76664C2.10786 3.98615 2.23421 3.56254 2.34037 3.28036C2.48094 2.90679 2.6493 2.63996 2.92074 2.35978C3.19219 2.0796 3.4507 1.90616 3.81263 1.76073C4.08601 1.65066 4.49657 1.52058 5.25274 1.48473C5.96819 1.45137 6.24545 1.44137 7.69089 1.4397V1.4417ZM12.5267 2.77157C12.0129 2.77157 11.596 3.20135 11.596 3.73185C11.596 4.26219 12.0129 4.69246 12.5267 4.69246C13.0405 4.69246 13.4574 4.26219 13.4574 3.73185C13.4574 3.20151 13.0405 2.77124 12.5267 2.77124V2.77157ZM8.38679 3.8938C6.18728 3.8938 4.40398 5.73447 4.40398 8.00474C4.40398 10.275 6.18728 12.1148 8.38679 12.1148C10.5863 12.1148 12.3689 10.275 12.3689 8.00474C12.3689 5.73447 10.5861 3.8938 8.38662 3.8938H8.38679ZM8.38652 5.33667C9.81418 5.33667 10.9717 6.53126 10.9717 8.00503C10.9717 9.47863 9.81418 10.6734 8.38652 10.6734C6.95869 10.6734 5.80133 9.47863 5.80133 8.00503C5.80133 6.53126 6.95869 5.33667 8.38652 5.33667Z" fill="#E84B23"/>
</svg>
