<svg width="139" height="143" viewBox="0 0 139 143" fill="none" xmlns="http://www.w3.org/2000/svg">
<path d="M133.856 142.578C119.841 135.643 115.04 119.16 116.501 105.901C117.689 95.0945 122.119 84.8222 126.405 74.8895C127.625 72.057 128.891 69.1271 130.053 66.2415C134.275 55.7713 139.314 40.2328 134.391 26.239C131.136 17.0004 123.099 9.26215 112.336 5.02089C101.574 0.779625 89.9586 0.767812 80.4675 4.98545C70.419 9.45413 62.9939 17.6443 55.8027 25.5656C52.5322 29.1748 49.1464 32.911 45.5523 36.278C39.3509 42.064 31.3973 46.5327 23.7352 48.5411C14.6893 50.9039 6.64918 49.817 0.476562 45.3719L1.54324 44.1137C13.7155 52.868 32.6561 46.0335 44.3191 35.1557C47.8779 31.8359 51.2381 28.1293 54.4893 24.5407C61.7863 16.4894 69.3299 8.16344 79.7179 3.54708C89.6479 -0.883206 101.798 -0.883206 113.031 3.54708C124.265 7.97737 132.645 16.0553 136.053 25.734C141.146 40.2062 136.002 56.0903 131.693 66.7879C130.521 69.6942 129.256 72.63 128.032 75.4713C123.791 85.3036 119.406 95.4726 118.243 106.055C116.843 118.785 121.389 134.58 134.695 141.167L133.856 142.578Z" fill="#FF6F28"/>
</svg>
