<svg width="135" height="132" viewBox="0 0 135 132" fill="none" xmlns="http://www.w3.org/2000/svg">
<path d="M36.9326 130.669C24.5521 134.391 10.7495 126.499 5.00288 115.725C-0.7437 104.95 -0.170323 92.2618 1.87974 80.4064C4.59287 64.6552 10.4419 48.1775 24.235 38.5579C33.9536 31.7648 46.4078 29.2779 56.8567 23.4949C64.317 19.36 70.5857 13.6626 77.5495 8.85132C84.5133 4.04003 92.6495 -0.0092511 101.349 0.0704941C110.049 0.150239 119.153 5.46658 120.518 13.3909C122.388 24.254 109.947 33.6639 110.863 44.6303C112.016 58.5916 133.407 65.4852 134.375 79.4583C134.935 87.548 127.837 94.7073 119.681 97.7347C111.526 100.762 102.464 100.632 93.6745 100.768C84.8849 100.904 75.7012 101.465 68.1416 105.6C56.1488 112.154 50.1908 126.685 36.9326 130.669Z" fill="#03C7A0"/>
</svg>
