<svg width="238" height="130" viewBox="0 0 238 130" fill="none" xmlns="http://www.w3.org/2000/svg">
<path d="M1.99565 129.139L0.262695 129.11C0.663098 108.905 10.8333 88.9801 27.4613 75.8163C44.0892 62.6524 66.9858 56.3998 88.7101 59.0905C102.087 60.7474 114.759 65.5882 127.014 70.2873C136.582 73.9497 146.474 77.7331 156.628 79.9689C175.258 84.0684 193.491 82.4942 207.973 75.5386C224.376 67.6497 235.248 52.6075 235.671 37.2196C236.126 20.6562 223.124 4.91097 206.685 2.11693L207.005 0.545654C224.248 3.47555 237.884 19.9474 237.41 37.2609C236.971 53.21 225.734 68.8016 208.78 76.9563C193.93 84.098 175.268 85.7224 156.247 81.5343C145.961 79.2689 136.003 75.4589 126.374 71.7877C114.221 67.1359 101.654 62.3364 88.5019 60.7001C67.2581 58.0685 44.874 64.1823 28.6016 77.0538C12.3293 89.9252 2.38004 109.383 1.99565 129.139Z" fill="#FF6F28"/>
</svg>
