<svg width="135" height="86" viewBox="0 0 135 86" fill="none" xmlns="http://www.w3.org/2000/svg">
<path d="M65.2595 85.2549C53.6702 85.2549 43.6121 83.6423 34.5086 80.3254C15.254 73.3049 1.67232 57.5833 0.714556 41.1853C-0.150314 26.3852 9.56185 11.3045 24.3255 4.50547C30.5304 1.69996 37.3549 0.255456 44.2656 0.284864C53.6462 0.289595 62.8247 2.79877 70.6922 7.50921C74.536 9.83955 78.0788 12.6956 81.5095 15.4601C87.5091 20.295 93.1756 24.8612 100.383 26.9788C103.474 27.8885 106.828 28.3109 110.069 28.7185C115.175 29.3623 120.454 30.0269 124.955 32.5994C129.76 35.3462 132.963 40.063 133.946 45.8903C135.228 53.4159 132.745 61.6297 127.482 67.3241C117.953 77.6348 102.612 81.1731 90.3247 83.1018C81.0866 84.5519 72.8896 85.2549 65.2595 85.2549ZM44.2752 1.88569C37.6335 1.8563 31.0745 3.24315 25.1103 5.93792C10.9457 12.4593 1.62746 26.908 2.45709 41.0997C3.52056 59.3229 19.6456 73.1868 35.1556 78.8399C44.0446 82.0887 53.8913 83.657 65.2659 83.657C72.7967 83.657 80.8977 82.96 90.0396 81.5246C102.049 79.6402 117.011 76.2083 126.178 66.2844C131.051 61.0124 133.434 53.1058 132.265 46.1325C131.358 40.7837 128.45 36.4626 124.074 33.9669C119.887 31.5745 115.018 30.9602 109.864 30.3104C106.549 29.894 103.118 29.4598 99.8864 28.5088C92.3364 26.2877 86.2663 21.3967 80.398 16.6651C77.0121 13.9361 73.511 11.1155 69.7696 8.84422C62.1794 4.30176 53.3241 1.88476 44.2752 1.88569Z" fill="#FF6F28"/>
</svg>
