<svg width="357" height="128" viewBox="0 0 357 128" fill="none" xmlns="http://www.w3.org/2000/svg">
<path d="M138.908 127.451C129.593 127.451 120.704 125.43 113.122 121.331C96.331 112.246 87.4965 94.7108 80.4719 77.1137C80.0576 76.078 79.6444 75.0393 79.2322 73.9977C72.9219 58.0782 66.3777 41.6212 52.6999 30.6547C44.2818 23.9089 31.7989 20.4001 20.8919 21.7144C15.1966 22.3996 7.32305 24.6975 2.15625 31.7357L0.721191 30.8497C5.1 24.8894 11.9965 21.1857 20.6677 20.1402C32.0423 18.7668 45.0634 22.4262 53.837 29.4586C67.8543 40.682 74.469 57.3487 80.8691 73.4661C81.2833 74.5077 81.6965 75.5454 82.1087 76.5791C89.0309 93.8956 97.686 111.135 114.01 119.969C131.192 129.264 155.37 127.474 175.604 115.406C194.622 104.068 207.896 86.2755 218.848 70.4889C220.377 68.2856 221.898 66.0734 223.413 63.8524C233.573 49.0257 244.08 33.6939 258.155 21.5431C276.458 5.74469 299.121 -1.78975 318.785 1.40006C330.813 3.34644 342.217 10.2606 349.296 19.9039C355.225 27.9759 357.423 37.1141 355.488 45.638L353.79 45.3101C355.629 37.2145 353.524 28.5105 347.861 20.7959C341.041 11.51 330.057 4.84682 318.484 2.97134C299.355 -0.144634 277.246 7.23623 259.349 22.7009C245.435 34.7129 235.005 49.956 224.889 64.6971C223.369 66.9162 221.845 69.1303 220.318 71.3395C209.27 87.2679 195.865 105.222 176.556 116.738C164.646 123.824 151.401 127.451 138.908 127.451Z" fill="#FF6F28"/>
</svg>
