<svg width="32" height="30" viewBox="0 0 32 30" fill="none" xmlns="http://www.w3.org/2000/svg">
<path d="M15.9213 29.0775C12.8346 29.078 9.817 28.2346 7.25017 26.6538C4.68334 25.073 2.68257 22.8259 1.50089 20.1966C0.319205 17.5673 0.00969094 14.6739 0.611494 11.8824C1.2133 9.09095 2.69938 6.52671 4.88181 4.514C7.06423 2.50129 9.84496 1.13052 12.8723 0.575054C15.8997 0.0195907 19.0378 0.304377 21.8896 1.3934C24.7414 2.48243 27.1789 4.32678 28.8939 6.69319C30.6089 9.05961 31.5242 11.8418 31.5242 14.6879C31.52 18.5025 29.8749 22.1599 26.9498 24.8575C24.0246 27.5551 20.0585 29.0728 15.9213 29.0775ZM15.9213 1.90506C13.1781 1.90506 10.4965 2.6551 8.21559 4.06035C5.93469 5.4656 4.15694 7.46292 3.10716 9.79976C2.05738 12.1366 1.7827 14.708 2.31788 17.1888C2.85306 19.6695 4.17404 21.9483 6.11379 23.7368C8.05354 25.5254 10.5249 26.7434 13.2154 27.2368C15.9059 27.7303 18.6947 27.477 21.2291 26.5091C23.7635 25.5411 25.9297 23.902 27.4538 21.7989C28.9778 19.6958 29.7913 17.2232 29.7913 14.6938C29.7887 11.3022 28.3268 8.05008 25.7264 5.65129C23.1261 3.25251 19.5997 1.90306 15.9213 1.89915V1.90506Z" fill="#FF6F28"/>
</svg>
