<svg width="233" height="161" viewBox="0 0 233 161" fill="none" xmlns="http://www.w3.org/2000/svg">
<path d="M155.32 30.0004C123.189 23.482 95.6793 -3.87064 63.253 1.26259C45.7218 4.03595 31.6756 15.9977 20.0864 28.435C12.9752 36.0699 6.2356 44.2925 2.80815 53.8354C-0.6193 63.3782 -0.286164 74.5602 6.01137 82.7799C16.9023 97.0277 40.6222 97.707 53.166 110.747C65.8444 123.928 64.1755 146.747 80.1084 156.47C90.3395 162.714 104.286 160.756 115.161 155.519C126.036 150.283 134.983 142.228 145.169 135.932C158.443 127.709 173.614 122.549 187.977 116.063C202.34 109.577 216.447 101.296 225.035 88.8671C233.623 76.4387 235.311 58.9833 225.416 47.3967C210.002 29.3861 179.626 34.9328 155.32 30.0004Z" fill="#FFC8AC"/>
</svg>
