<svg width="512" height="292" viewBox="0 0 512 292" fill="none" xmlns="http://www.w3.org/2000/svg">
<path d="M527.159 156.149C523.485 178.348 499.163 192.3 476.013 199.27C452.864 206.241 427.401 209.826 408.803 224.325C395.372 234.795 387.217 249.725 377.187 263.049C367.158 276.372 353.439 289.099 335.972 290.986C298.318 295.05 273.188 248.65 235.294 247.806C214.153 247.333 196.426 261.223 178.129 270.979C159.833 280.734 133.368 285.431 120.007 270.332C106.489 255.054 115.981 229.573 102.139 214.537C82.4364 193.148 40.8874 214.921 15.1687 199.917C4.18161 193.508 -1.64504 180.391 1.31154 168.716C4.26811 157.041 15.7933 147.66 28.7215 146.399C39.9328 145.306 54.5555 148.399 59.953 139.264C65.0205 130.698 55.5966 121.037 46.7589 115.635C37.9212 110.233 27.2993 102.841 29.4454 93.2712C31.5628 83.8377 44.7152 80.7247 55.0712 81.8972C65.4273 83.0697 76.3342 86.487 85.9631 82.7478C104.961 75.364 103.795 46.9806 122.025 38.0994C141.421 28.6481 161.896 48.4367 183.027 53.883C203.582 59.1757 225.31 50.1202 242.626 38.6281C259.943 27.1359 275.52 12.8438 295.233 5.30344C314.946 -2.23691 341.186 -0.653823 353.359 15.502C369.567 36.9859 352.465 70.3489 369.878 91.0177C385.769 109.864 417.103 104.622 442.889 102.395C462.547 100.688 483.265 102.085 500.412 111.111C517.559 120.136 530.138 138.162 527.159 156.149Z" fill="#2872FF"/>
</svg>
