<svg width="111" height="51" viewBox="0 0 111 51" fill="none" xmlns="http://www.w3.org/2000/svg">
<path d="M90.8452 50.6973C87.7162 50.6961 84.6031 50.2885 81.5975 49.4864C78.0419 48.5265 74.5504 47.1915 71.1742 45.8978C65.4084 43.6915 59.4344 41.4085 53.2041 41.0718C52.6435 41.0422 52.067 41.0275 51.4904 41.0275C46.4101 41.0275 41.2817 42.2089 36.3263 43.3578C33.8342 43.9485 31.2556 44.5392 28.6962 44.9763C26.1532 45.4197 23.571 45.6441 20.9829 45.6468C13.8045 45.6468 8.07068 43.6531 4.4094 39.8785C1.44641 36.8275 0.0594154 32.7901 0.40216 28.2446C0.837799 22.4173 4.15314 16.4305 9.05086 12.5909C17.2607 6.17586 28.0524 4.29447 39.3181 2.79113C46.897 1.77807 55.0139 0.841797 63.022 0.841797C72.5804 0.841797 80.6717 2.19156 87.7509 4.97673C102.764 10.8749 114.937 27.0721 109.116 41.7865L109.091 41.8426C106.323 47.4691 99.6733 50.6973 90.8452 50.6973ZM51.4904 39.4178C52.1022 39.4178 52.7108 39.4326 53.3066 39.4651C59.8284 39.8165 65.9337 42.1528 71.8405 44.4093C75.175 45.6822 78.6217 47.0025 82.0908 47.9535C84.9376 48.7167 87.8869 49.1064 90.8516 49.1113C98.9526 49.1113 105.019 46.2375 107.508 41.2224C112.954 27.3674 101.339 12.0682 87.0686 6.46531C80.2073 3.7717 72.3337 2.46329 63.0188 2.46329C55.1292 2.46329 47.0891 3.39069 39.5712 4.39489C28.5649 5.87165 18.0359 7.69102 10.1784 13.8462C5.62341 17.4052 2.54191 22.9785 2.1383 28.3893C1.81798 32.5095 3.06404 36.1246 5.7099 38.8478C9.91253 43.1747 16.3414 44.0844 20.9925 44.0844C23.4729 44.0733 25.9468 43.8499 28.3823 43.4169C30.8936 42.9798 33.4466 42.389 35.9131 41.819C40.9646 40.6258 46.1954 39.4178 51.4904 39.4178Z" fill="#FF6F28"/>
</svg>
