<svg width="195" height="108" viewBox="0 0 195 108" fill="none" xmlns="http://www.w3.org/2000/svg">
<path d="M42.3387 107.568C37.1628 107.602 32.0088 106.945 27.0369 105.619C12.459 101.623 -1.34372 88.4883 0.792833 73.4253C2.19585 63.5399 9.72342 55.97 17.0075 48.6511C19.7399 45.9073 22.5619 43.069 25.0156 40.1627C28.3053 36.2434 31.1017 31.8928 33.8309 27.6663C36.3935 23.6791 39.0554 19.556 42.1337 15.7725C46.6182 10.2612 56.0356 0.972379 68.7204 0.709515C80.8126 0.482093 90.1019 8.17012 99.0805 15.6219C104.206 19.8749 109.507 24.2757 115.327 27.244C124.729 32.0376 135.79 33.151 146.485 34.235C151.396 34.7312 156.476 35.2451 161.367 36.1046C177.306 38.9075 194.613 48.7457 194.95 63.723C195.104 70.5456 191.692 76.9045 185.087 82.1175C179.299 86.6837 171.422 89.9444 163.478 91.0579C159.424 91.5974 155.331 91.8531 151.235 91.8228C146.901 91.8228 142.494 91.6013 138.227 91.3886C133.96 91.176 129.578 90.9545 125.283 90.9545C122.438 90.9545 119.879 91.049 117.457 91.2498C105.708 92.192 94.2501 95.7894 83.183 99.2657C79.8676 100.308 76.437 101.383 73.0512 102.373C60.8885 105.914 51.1315 107.568 42.3387 107.568ZM69.3002 2.29556H68.7589C56.7916 2.5407 47.8001 11.4367 43.5046 16.7176C40.4808 20.4332 37.8509 24.5179 35.3044 28.4697C32.5624 32.7287 29.7243 37.1324 26.3674 41.1285C23.8849 44.082 21.0372 46.9499 18.2824 49.7174C11.1809 56.8531 3.83909 64.2339 2.50976 73.6173C0.491726 87.8385 13.6474 100.273 27.5301 104.08C32.342 105.363 37.3298 105.997 42.3387 105.964C50.9489 105.964 60.5394 104.334 72.5194 100.834C75.8892 99.8475 79.3103 98.7665 82.616 97.7387C93.7952 94.2299 105.359 90.603 117.313 89.6431C119.783 89.4452 122.394 89.3478 125.289 89.3478C129.636 89.3478 134.057 89.5693 138.326 89.7819C142.596 89.9946 146.953 90.2131 151.239 90.2131C155.247 90.2432 159.252 89.9934 163.219 89.4659C178.2 87.363 193.518 77.1674 193.22 63.7437C192.9 49.6553 176.32 40.3458 161.047 37.6611C156.223 36.8134 151.178 36.3024 146.312 35.8092C135.447 34.7105 124.21 33.5763 114.504 28.6262C108.511 25.5693 103.136 21.1095 97.937 16.7944C88.9295 9.34267 80.4474 2.29556 69.3002 2.29556Z" fill="#FF6F28"/>
</svg>
