<svg width="229" height="176" viewBox="0 0 229 176" fill="none" xmlns="http://www.w3.org/2000/svg">
<path d="M150.817 5.70984C174.483 23.9272 150.516 65.631 172.439 85.6115C185.13 97.1805 207.425 95.1485 220.273 106.582C233.922 118.721 229.562 141.377 215.567 153.165C201.572 164.952 181.392 168.089 162.429 168.281C143.466 168.473 124.288 166.272 105.658 169.548C87.227 172.797 65.4867 180.514 51.7897 168.694C37.718 156.552 45.111 133.784 34.9696 118.673C29.8028 110.973 20.8017 106.348 13.162 100.657C5.52236 94.9653 -1.43183 86.5921 0.313926 77.6813C1.98921 69.1161 11.1504 63.4837 20.2252 61.115C29.2999 58.7463 38.9704 58.6163 47.885 55.778C67.8667 49.4161 79.8852 31.2431 94.6521 17.3024C109.419 3.36178 134.593 -6.78062 150.817 5.70984Z" fill="#00CB9D"/>
</svg>
