<svg width="17" height="16" viewBox="0 0 17 16" fill="none" xmlns="http://www.w3.org/2000/svg">
<path fill-rule="evenodd" clip-rule="evenodd" d="M8.38676 -0.000244141C6.28048 -0.000244141 6.01614 0.00926189 5.18888 0.0481199C4.36324 0.0871447 3.79967 0.222064 3.30654 0.420023C2.79645 0.624486 2.36376 0.897993 1.93268 1.34311C1.50128 1.78806 1.2363 2.23467 1.03756 2.76101C0.845286 3.27016 0.714411 3.85203 0.677249 4.70391C0.640249 5.55778 0.630554 5.83079 0.630554 8.00484C0.630554 10.1789 0.639925 10.4509 0.677411 11.3048C0.715381 12.157 0.846094 12.7387 1.03772 13.2477C1.23597 13.7742 1.50095 14.2208 1.9322 14.6657C2.36311 15.111 2.79581 15.3852 3.30557 15.5896C3.79902 15.7876 4.36275 15.9225 5.18824 15.9616C6.01549 16.0004 6.27967 16.0099 8.38579 16.0099C10.4922 16.0099 10.7558 16.0004 11.583 15.9616C12.4087 15.9225 12.9729 15.7876 13.4663 15.5896C13.9762 15.3852 14.4083 15.111 14.8392 14.6657C15.2706 14.2208 15.5356 13.7742 15.7343 13.2478C15.925 12.7387 16.0559 12.1568 16.0946 11.3049C16.1318 10.4511 16.1415 10.1789 16.1415 8.00484C16.1415 5.83079 16.1318 5.55795 16.0946 4.70407C16.0559 3.85187 15.925 3.27016 15.7343 2.76117C15.5356 2.23467 15.2706 1.78806 14.8392 1.34311C14.4078 0.897826 13.9764 0.624319 13.4658 0.420023C12.9714 0.222064 12.4075 0.0871447 11.5819 0.0481199C10.7546 0.00926189 10.4913 -0.000244141 8.38433 -0.000244141H8.38676ZM7.69119 1.4417C7.89768 1.44137 8.12808 1.4417 8.38692 1.4417C10.4577 1.4417 10.7031 1.44937 11.5208 1.48773C12.277 1.52342 12.6874 1.65383 12.9608 1.7634C13.3227 1.90849 13.5807 2.08194 13.852 2.36212C14.1234 2.64229 14.2915 2.90913 14.4324 3.2827C14.5385 3.56455 14.665 3.98815 14.6995 4.76864C14.7366 5.61251 14.7447 5.86601 14.7447 8.00236C14.7447 10.1387 14.7366 10.3922 14.6995 11.2361C14.6649 12.0166 14.5385 12.4402 14.4324 12.722C14.2918 13.0956 14.1234 13.3616 13.852 13.6416C13.5806 13.9218 13.3229 14.0952 12.9608 14.2403C12.6877 14.3504 12.277 14.4805 11.5208 14.5162C10.7032 14.5545 10.4577 14.5629 8.38692 14.5629C6.31603 14.5629 6.0706 14.5545 5.25303 14.5162C4.49687 14.4801 4.08647 14.3497 3.81292 14.2402C3.451 14.0951 3.19248 13.9216 2.92103 13.6414C2.64959 13.3613 2.48155 13.0951 2.34066 12.7214C2.23451 12.4395 2.10799 12.0159 2.07358 11.2354C2.03642 10.3915 2.02898 10.138 2.02898 8.00036C2.02898 5.86267 2.03642 5.61051 2.07358 4.76664C2.10816 3.98615 2.23451 3.56254 2.34066 3.28036C2.48123 2.90679 2.64959 2.63996 2.92103 2.35978C3.19248 2.0796 3.451 1.90616 3.81292 1.76073C4.08631 1.65066 4.49687 1.52058 5.25303 1.48473C5.96848 1.45137 6.24574 1.44137 7.69119 1.4397V1.4417ZM12.5269 2.77157C12.0131 2.77157 11.5962 3.20135 11.5962 3.73185C11.5962 4.26219 12.0131 4.69246 12.5269 4.69246C13.0407 4.69246 13.4575 4.26219 13.4575 3.73185C13.4575 3.20151 13.0407 2.77124 12.5269 2.77124V2.77157ZM8.38688 3.8938C6.18737 3.8938 4.40408 5.73447 4.40408 8.00474C4.40408 10.275 6.18737 12.1148 8.38688 12.1148C10.5864 12.1148 12.369 10.275 12.369 8.00474C12.369 5.73447 10.5862 3.8938 8.38671 3.8938H8.38688ZM8.38674 5.33667C9.81441 5.33667 10.9719 6.53126 10.9719 8.00503C10.9719 9.47863 9.81441 10.6734 8.38674 10.6734C6.95891 10.6734 5.80156 9.47863 5.80156 8.00503C5.80156 6.53126 6.95891 5.33667 8.38674 5.33667Z" fill="#E84B23"/>
</svg>
