<svg width="17" height="16" viewBox="0 0 17 16" fill="none" xmlns="http://www.w3.org/2000/svg">
<path fill-rule="evenodd" clip-rule="evenodd" d="M8.38669 -0.000244141C6.28042 -0.000244141 6.01608 0.00926189 5.18882 0.0481199C4.36318 0.0871447 3.79961 0.222064 3.30648 0.420023C2.79639 0.624486 2.3637 0.897993 1.93262 1.34311C1.50122 1.78806 1.23623 2.23467 1.0375 2.76101C0.845225 3.27016 0.71435 3.85203 0.677188 4.70391C0.640188 5.55778 0.630493 5.83079 0.630493 8.00484C0.630493 10.1789 0.639864 10.4509 0.67735 11.3048C0.71532 12.157 0.846033 12.7387 1.03766 13.2477C1.23591 13.7742 1.50089 14.2208 1.93213 14.6657C2.36305 15.111 2.79575 15.3852 3.30551 15.5896C3.79896 15.7876 4.36269 15.9225 5.18817 15.9616C6.01543 16.0004 6.27961 16.0099 8.38573 16.0099C10.4922 16.0099 10.7557 16.0004 11.583 15.9616C12.4086 15.9225 12.9728 15.7876 13.4663 15.5896C13.9762 15.3852 14.4082 15.111 14.8392 14.6657C15.2706 14.2208 15.5355 13.7742 15.7343 13.2478C15.9249 12.7387 16.0558 12.1568 16.0946 11.3049C16.1317 10.4511 16.1414 10.1789 16.1414 8.00484C16.1414 5.83079 16.1317 5.55795 16.0946 4.70407C16.0558 3.85187 15.9249 3.27016 15.7343 2.76117C15.5355 2.23467 15.2706 1.78806 14.8392 1.34311C14.4078 0.897826 13.9764 0.624319 13.4658 0.420023C12.9714 0.222064 12.4075 0.0871447 11.5818 0.0481199C10.7546 0.00926189 10.4912 -0.000244141 8.38427 -0.000244141H8.38669ZM7.69112 1.4417C7.89762 1.44137 8.12802 1.4417 8.38686 1.4417C10.4576 1.4417 10.703 1.44937 11.5208 1.48773C12.2769 1.52342 12.6873 1.65383 12.9607 1.7634C13.3226 1.90849 13.5807 2.08194 13.8519 2.36212C14.1234 2.64229 14.2914 2.90913 14.4323 3.2827C14.5385 3.56455 14.665 3.98815 14.6994 4.76864C14.7366 5.61251 14.7446 5.86601 14.7446 8.00236C14.7446 10.1387 14.7366 10.3922 14.6994 11.2361C14.6648 12.0166 14.5385 12.4402 14.4323 12.722C14.2917 13.0956 14.1234 13.3616 13.8519 13.6416C13.5805 13.9218 13.3228 14.0952 12.9607 14.2403C12.6876 14.3504 12.2769 14.4805 11.5208 14.5162C10.7032 14.5545 10.4576 14.5629 8.38686 14.5629C6.31597 14.5629 6.07054 14.5545 5.25297 14.5162C4.49681 14.4801 4.08641 14.3497 3.81286 14.2402C3.45094 14.0951 3.19242 13.9216 2.92097 13.6414C2.64953 13.3613 2.48149 13.0951 2.3406 12.7214C2.23445 12.4395 2.10793 12.0159 2.07352 11.2354C2.03636 10.3915 2.02892 10.138 2.02892 8.00036C2.02892 5.86267 2.03636 5.61051 2.07352 4.76664C2.10809 3.98615 2.23445 3.56254 2.3406 3.28036C2.48117 2.90679 2.64953 2.63996 2.92097 2.35978C3.19242 2.0796 3.45094 1.90616 3.81286 1.76073C4.08625 1.65066 4.49681 1.52058 5.25297 1.48473C5.96842 1.45137 6.24568 1.44137 7.69112 1.4397V1.4417ZM12.5268 2.77157C12.013 2.77157 11.5962 3.20135 11.5962 3.73185C11.5962 4.26219 12.013 4.69246 12.5268 4.69246C13.0406 4.69246 13.4575 4.26219 13.4575 3.73185C13.4575 3.20151 13.0406 2.77124 12.5268 2.77124V2.77157ZM8.38682 3.8938C6.18731 3.8938 4.40401 5.73447 4.40401 8.00474C4.40401 10.275 6.18731 12.1148 8.38682 12.1148C10.5863 12.1148 12.369 10.275 12.369 8.00474C12.369 5.73447 10.5862 3.8938 8.38665 3.8938H8.38682ZM8.38668 5.33667C9.81435 5.33667 10.9719 6.53126 10.9719 8.00503C10.9719 9.47863 9.81435 10.6734 8.38668 10.6734C6.95885 10.6734 5.8015 9.47863 5.8015 8.00503C5.8015 6.53126 6.95885 5.33667 8.38668 5.33667Z" fill="#E84B23"/>
</svg>
