<svg width="85" height="89" viewBox="0 0 85 89" fill="none" xmlns="http://www.w3.org/2000/svg">
<path d="M53.5859 5.47483C52.1702 3.95686 50.4791 2.75067 48.6122 1.92717C46.7452 1.10366 44.74 0.679443 42.7143 0.679443C40.6887 0.679443 38.6834 1.10366 36.8165 1.92717C34.9495 2.75067 33.2585 3.95686 31.8428 5.47483L28.5713 8.99066L23.8903 8.93005C21.864 8.90492 19.8534 9.30454 17.9767 10.1054C16.1 10.9063 14.3951 12.0922 12.9622 13.5935C11.5293 15.0948 10.3974 16.8811 9.63303 18.8475C8.86865 20.8138 8.48724 22.9204 8.51122 25.0434L8.56381 29.9479L5.21871 33.3755C3.76991 34.8589 2.61869 36.6306 1.83271 38.5867C1.04673 40.5428 0.641846 42.6438 0.641846 44.7662C0.641846 46.8885 1.04673 48.9895 1.83271 50.9456C2.61869 52.9017 3.76991 54.6735 5.21871 56.1568L8.56907 59.5845L8.51122 64.489C8.48724 66.612 8.86865 68.7186 9.63303 70.6849C10.3974 72.6512 11.5293 74.4375 12.9622 75.9388C14.3951 77.4401 16.1 78.6261 17.9767 79.4269C19.8534 80.2278 21.864 80.6274 23.8903 80.6023L28.5713 80.5472L31.8428 84.052C33.2585 85.57 34.9495 86.7761 36.8165 87.5997C38.6834 88.4232 40.6887 88.8474 42.7143 88.8474C44.74 88.8474 46.7452 88.4232 48.6122 87.5997C50.4791 86.7761 52.1702 85.57 53.5859 84.052L56.8574 80.5417L61.5384 80.6023C63.5646 80.6274 65.5752 80.2278 67.452 79.4269C69.3287 78.6261 71.0336 77.4401 72.4665 75.9388C73.8993 74.4375 75.0312 72.6512 75.7956 70.6849C76.56 68.7186 76.9414 66.612 76.9174 64.489L76.8648 59.5845L80.2099 56.1568C81.6587 54.6735 82.81 52.9017 83.5959 50.9456C84.3819 48.9895 84.7868 46.8885 84.7868 44.7662C84.7868 42.6438 84.3819 40.5428 83.5959 38.5867C82.81 36.6306 81.6587 34.8589 80.2099 33.3755L76.8596 29.9479L76.9174 25.0434C76.9414 22.9204 76.56 20.8138 75.7956 18.8475C75.0312 16.8811 73.8993 15.0948 72.4665 13.5935C71.0336 12.0922 69.3287 10.9063 67.452 10.1054C65.5752 9.30454 63.5646 8.90492 61.5384 8.93005L56.8574 8.98515L53.5859 5.48034V5.47483ZM55.0954 38.4509L39.3166 54.983C39.0723 55.2396 38.7821 55.4432 38.4626 55.5821C38.1432 55.721 37.8006 55.7925 37.4547 55.7925C37.1088 55.7925 36.7663 55.721 36.4468 55.5821C36.1273 55.4432 35.8371 55.2396 35.5928 54.983L27.7035 46.717C27.4589 46.4608 27.265 46.1566 27.1327 45.8219C27.0003 45.4872 26.9322 45.1285 26.9322 44.7662C26.9322 44.4039 27.0003 44.0451 27.1327 43.7104C27.265 43.3757 27.4589 43.0716 27.7035 42.8154C27.948 42.5592 28.2382 42.356 28.5577 42.2173C28.8772 42.0787 29.2196 42.0073 29.5653 42.0073C29.9111 42.0073 30.2535 42.0787 30.573 42.2173C30.8925 42.356 31.1827 42.5592 31.4272 42.8154L37.4547 49.1362L51.3716 34.5493C51.8654 34.0319 52.5352 33.7413 53.2335 33.7413C53.9318 33.7413 54.6016 34.0319 55.0954 34.5493C55.5892 35.0667 55.8666 35.7684 55.8666 36.5001C55.8666 37.2318 55.5892 37.9335 55.0954 38.4509Z" fill="#FF9763"/>
</svg>
