<svg width="75" height="89" viewBox="0 0 75 89" fill="none" xmlns="http://www.w3.org/2000/svg">
<path d="M32.4939 86.9302C28.7801 84.1894 24.8092 81.9758 20.581 80.2891C16.3501 78.6025 11.9308 77.4429 7.32297 76.8104C5.25978 76.5293 3.54046 75.6326 2.165 74.1203C0.789537 72.6107 0.101807 70.8721 0.101807 68.9044V39.1775C0.101807 36.507 0.995856 34.3102 2.78395 32.587C4.57205 30.8666 6.66963 30.2173 9.07668 30.6389C14.3722 31.5525 19.4105 33.204 24.1916 35.5934C28.97 37.9828 33.3192 41.075 37.2392 44.8699C41.1593 41.075 45.5099 37.9828 50.291 35.5934C55.0693 33.204 60.1063 31.5525 65.4018 30.6389C67.8088 30.2173 69.9064 30.8666 71.6945 32.587C73.4826 34.3102 74.3766 36.507 74.3766 39.1775V68.9044C74.3766 70.8721 73.6889 72.6107 72.3135 74.1203C70.938 75.6326 69.2187 76.5293 67.1555 76.8104C62.5477 77.4429 58.1297 78.6025 53.9016 80.2891C49.6706 81.9758 45.6983 84.1894 41.9846 86.9302C40.6091 87.9844 39.0273 88.5114 37.2392 88.5114C35.4511 88.5114 33.8694 87.9844 32.4939 86.9302ZM37.2392 34.1176C32.7002 34.1176 28.8145 32.4661 25.5822 29.1631C22.3499 25.8602 20.7337 21.8895 20.7337 17.2513C20.7337 12.6131 22.3499 8.64247 25.5822 5.33949C28.8145 2.0365 32.7002 0.38501 37.2392 0.38501C41.7782 0.38501 45.6639 2.0365 48.8962 5.33949C52.1286 8.64247 53.7447 12.6131 53.7447 17.2513C53.7447 21.8895 52.1286 25.8602 48.8962 29.1631C45.6639 32.4661 41.7782 34.1176 37.2392 34.1176Z" fill="#FF9763"/>
</svg>
