<svg width="94" height="88" viewBox="0 0 94 88" fill="none" xmlns="http://www.w3.org/2000/svg">
<path d="M44.0251 25.2325L52.8024 27.6559C53.1005 27.7289 53.3672 27.9031 53.5611 28.1513C53.7551 28.3995 53.8653 28.7079 53.8747 29.0285C53.8747 29.8081 53.2132 30.4521 52.3997 30.4521H46.642C46.0215 30.4502 45.4072 30.3236 44.8322 30.0792C43.9847 29.7064 43.0078 29.7911 42.3577 30.4182L39.2847 33.3838C39.1426 33.5142 39.0199 33.6661 38.9208 33.8346C38.794 34.0526 38.7095 34.2948 38.6724 34.5472C38.6353 34.7996 38.6462 35.0572 38.7045 35.3052C38.7629 35.5532 38.8675 35.7866 39.0123 35.992C39.1571 36.1974 39.3393 36.3707 39.5484 36.502C41.2501 37.5721 43.1555 38.2374 45.1298 38.4509V41.4504C45.1298 42.9417 46.3962 44.1619 47.9391 44.1619H50.7484C52.293 44.1619 53.5593 42.9417 53.5593 41.4504V38.4678C58.8852 37.8577 62.914 33.2144 62.2121 27.7914C61.7026 23.8937 58.5795 20.7925 54.6818 19.7079L45.9045 17.2845C45.6064 17.2115 45.3397 17.0373 45.1457 16.7891C44.9518 16.5409 44.8416 16.2325 44.8322 15.9119C44.8322 15.1323 45.4937 14.4884 46.3072 14.4884H52.0649C52.6875 14.4894 53.3042 14.616 53.8812 14.8612C54.727 15.234 55.7055 15.1493 56.3557 14.5223L59.4286 11.5566C59.5661 11.429 59.6844 11.2805 59.7796 11.116C59.9075 10.898 59.993 10.6556 60.031 10.4028C60.0691 10.1501 60.0589 9.89188 60.0012 9.64323C59.9434 9.39458 59.8392 9.16038 59.6946 8.95417C59.55 8.74796 59.3678 8.57382 59.1585 8.44182C57.4562 7.3717 55.5502 6.7064 53.5755 6.49296V3.49002C53.5755 1.99872 52.3107 0.778564 50.7662 0.778564H47.9569C46.4123 0.778564 45.1476 1.99872 45.1476 3.49002V6.47262C39.8282 7.0827 35.7913 11.7261 36.4932 17.149C37.0011 21.0467 40.1338 24.1479 44.0251 25.2325ZM91.6087 56.3804C89.7003 54.5671 86.7244 54.6857 84.7189 56.3804L69.7747 68.9039C67.9403 70.4459 65.6572 71.2832 63.3054 71.2764H44.1772C43.4909 71.2764 42.8327 70.9907 42.3474 70.4822C41.8621 69.9737 41.5894 69.2841 41.5894 68.565C41.5894 67.8458 41.8621 67.1562 42.3474 66.6477C42.8327 66.1392 43.4909 65.8535 44.1772 65.8535H56.8393C59.4108 65.8535 61.8061 64.0063 62.2169 61.3457C62.2676 61.0402 62.2925 60.7305 62.2913 60.4204C62.2887 58.9839 61.7423 57.6072 60.772 56.5924C59.8017 55.5776 58.4868 55.0077 57.1158 55.0077H31.2385C26.8743 55.0089 22.6431 56.5818 19.254 59.4629L11.7334 65.8535H2.7734C2.08709 65.8535 1.42889 66.1392 0.943599 66.6477C0.458305 67.1562 0.185669 67.8458 0.185669 68.565L0.185669 84.8337C0.185669 85.5528 0.458305 86.2425 0.943599 86.751C1.42889 87.2595 2.08709 87.5451 2.7734 87.5451H60.475C62.8261 87.5471 65.1077 86.7103 66.9444 85.1726L91.4033 64.6672C91.9917 64.1741 92.4702 63.5524 92.8055 62.8454C93.1408 62.1385 93.3247 61.3633 93.3444 60.5742C93.3641 59.785 93.2191 59.0009 92.9196 58.2765C92.6201 57.5521 92.1733 56.905 91.6104 56.3804H91.6087Z" fill="#FF9763"/>
</svg>
